<svg xmlns="http://www.w3.org/2000/svg" xmlns:xlink="http://www.w3.org/1999/xlink" width="375" zoomAndPan="magnify" viewBox="0 0 375 374.999991" height="374.999991" preserveAspectRatio="xMidYMid meet" version="1.0"><defs><g/></defs><g fill="rgb(100%, 100%, 100%)" fill-opacity="1"><g transform="translate(118.550168, 339.515728)"><g><path d="M 25.175781 -249.117188 L 131.132812 -249.117188 L 131.132812 -297.210938 C 131.132812 -298.714844 130.007812 -300.59375 127.375 -300.59375 L 25.175781 -300.59375 C 22.542969 -300.59375 21.042969 -298.714844 21.042969 -297.210938 L 21.042969 -252.5 C 21.042969 -250.996094 22.542969 -249.117188 25.175781 -249.117188 Z M 74.019531 -197.640625 L 74.019531 -88.675781 C 74.019531 -88.675781 74.019531 -55.609375 41.332031 -55.609375 L 4.132812 -55.609375 C 1.878906 -55.609375 0 -54.105469 0 -52.226562 L 0 -3.382812 C 0 -1.878906 1.878906 0 4.132812 0 L 41.332031 0 C 41.332031 0 131.132812 0 131.132812 -88.675781 L 131.132812 -197.640625 Z M 74.019531 -197.640625 "/></g></g></g></svg>