<svg xmlns="http://www.w3.org/2000/svg" xmlns:xlink="http://www.w3.org/1999/xlink" width="375" zoomAndPan="magnify"
    viewBox="0 0 375 374.999991" height="374.999991" preserveAspectRatio="xMidYMid meet" version="1.0">
    <defs>
        <g />
    </defs>
    <g fill="rgb(100%, 100%, 100%)" fill-opacity="1">
        <g transform="translate(1.230473, 238.533772)">
            <g>
                <path
                    d="M 8.144531 -80.609375 L 42.433594 -80.609375 L 42.433594 -96.171875 C 42.433594 -96.65625 42.066406 -97.265625 41.214844 -97.265625 L 8.144531 -97.265625 C 7.296875 -97.265625 6.808594 -96.65625 6.808594 -96.171875 L 6.808594 -81.703125 C 6.808594 -81.21875 7.296875 -80.609375 8.144531 -80.609375 Z M 23.953125 -63.953125 L 23.953125 -28.695312 C 23.953125 -28.695312 23.953125 -17.996094 13.375 -17.996094 L 1.335938 -17.996094 C 0.609375 -17.996094 0 -17.507812 0 -16.898438 L 0 -1.09375 C 0 -0.609375 0.609375 0 1.335938 0 L 13.375 0 C 13.375 0 42.433594 0 42.433594 -28.695312 L 42.433594 -63.953125 Z M 23.953125 -63.953125 " />
            </g>
        </g>
    </g>
    <g fill="rgb(100%, 100%, 100%)" fill-opacity="1">
        <g transform="translate(45.851076, 238.533772)">
            <g>
                <path
                    d="M 76.355469 -1.460938 L 39.394531 -96.535156 C 39.027344 -97.507812 37.324219 -97.507812 36.960938 -96.535156 L 0.121094 -1.460938 C -0.242188 -0.730469 0.242188 0 1.335938 0 L 17.996094 0 C 18.480469 0 19.089844 -0.242188 19.210938 -0.730469 L 38.175781 -54.957031 L 57.386719 -0.730469 C 57.507812 -0.242188 58.117188 0 58.480469 0 L 75.257812 0 C 76.109375 0 76.71875 -0.730469 76.355469 -1.460938 Z M 76.355469 -1.460938 " />
            </g>
        </g>
    </g>
    <g fill="rgb(100%, 100%, 100%)" fill-opacity="1">
        <g transform="translate(126.095212, 238.533772)">
            <g>
                <path
                    d="M 44.621094 -53.984375 C 37.691406 -57.265625 30.882812 -57.265625 30.273438 -57.265625 C 24.074219 -57.265625 18.117188 -60.914062 18.117188 -67.964844 C 18.117188 -75.746094 23.585938 -79.757812 30.273438 -79.757812 C 36.597656 -79.757812 41.945312 -76.476562 42.1875 -69.546875 C 42.1875 -69.179688 42.796875 -68.574219 43.527344 -68.574219 L 58.722656 -68.574219 C 59.574219 -68.574219 60.183594 -69.179688 60.0625 -69.546875 C 59.820312 -86.082031 46.929688 -97.265625 30.273438 -97.265625 C 14.710938 -97.265625 0 -86.203125 0 -67.964844 C 0 -56.65625 5.714844 -48.023438 15.804688 -43.40625 C 22.859375 -40.121094 29.421875 -40.121094 30.273438 -40.121094 C 35.746094 -39.878906 42.433594 -35.503906 42.433594 -28.328125 C 42.433594 -21.886719 36.71875 -17.507812 30.273438 -17.507812 C 30.273438 -17.507812 30.273438 -17.507812 30.152344 -17.507812 L 30.152344 0 C 30.273438 0 30.273438 0 30.273438 0 C 45.835938 0 60.425781 -10.089844 60.425781 -28.328125 C 60.425781 -39.757812 54.832031 -49.242188 44.621094 -53.984375 Z M 44.621094 -53.984375 " />
            </g>
        </g>
    </g>
    <g fill="rgb(100%, 100%, 100%)" fill-opacity="1">
        <g transform="translate(189.561028, 238.533772)">
            <g>
                <path
                    d="M 55.929688 -48.390625 C 55.929688 -53.496094 51.914062 -57.628906 46.808594 -57.628906 C 41.703125 -57.628906 37.691406 -53.496094 37.691406 -48.390625 C 37.691406 -43.40625 41.703125 -39.269531 46.808594 -39.269531 C 51.914062 -39.269531 55.929688 -43.40625 55.929688 -48.390625 Z M 93.617188 -48.753906 C 93.617188 -72.949219 77.933594 -97.265625 46.929688 -97.265625 C 15.441406 -97.265625 0 -72.949219 0 -48.753906 C 0 -24.4375 15.441406 0 46.929688 0 C 77.933594 0 93.617188 -24.4375 93.617188 -48.753906 Z M 75.382812 -48.390625 C 75.382812 -32.707031 65.777344 -17.023438 46.929688 -17.023438 C 27.84375 -17.023438 18.359375 -32.707031 18.359375 -48.390625 C 18.359375 -64.316406 27.84375 -80.121094 46.929688 -80.121094 C 65.777344 -80.121094 75.382812 -64.316406 75.382812 -48.390625 Z M 75.382812 -48.390625 " />
            </g>
        </g>
    </g>
    <g fill="rgb(100%, 100%, 100%)" fill-opacity="1">
        <g transform="translate(287.799303, 238.533772)">
            <g>
                <path
                    d="M 80.488281 -97.265625 L 64.804688 -97.265625 C 63.953125 -97.265625 63.34375 -96.65625 63.34375 -96.171875 L 63.34375 -32.828125 L 18.480469 -96.902344 C 18.359375 -97.144531 17.628906 -97.265625 17.386719 -97.265625 L 1.214844 -97.265625 C 0.609375 -97.265625 0 -96.65625 0 -96.171875 L 0 -23.34375 L 18.601562 -23.34375 L 18.601562 -64.4375 L 63.34375 -0.363281 C 63.464844 -0.121094 64.195312 0 64.4375 0 L 80.488281 0 C 81.339844 0 81.824219 -0.609375 81.824219 -1.09375 L 81.824219 -96.171875 C 81.824219 -96.65625 81.339844 -97.265625 80.488281 -97.265625 Z M 80.488281 -97.265625 " />
            </g>
        </g>
    </g>
</svg>